<svg width="21" height="21" viewBox="0 0 21 21" fill="none" xmlns="http://www.w3.org/2000/svg">
<path d="M17.9112 1.74988H3.08874C2.92212 1.74756 2.75668 1.77809 2.60186 1.83973C2.44704 1.90136 2.30588 1.99288 2.18644 2.10908C2.067 2.22527 1.97161 2.36385 1.90573 2.51691C1.83985 2.66997 1.80477 2.83451 1.80249 3.00113V17.9986C1.80477 18.1652 1.83985 18.3298 1.90573 18.4828C1.97161 18.6359 2.067 18.7745 2.18644 18.8907C2.30588 19.0069 2.44704 19.0984 2.60186 19.16C2.75668 19.2217 2.92212 19.2522 3.08874 19.2499H17.9112C18.0779 19.2522 18.2433 19.2217 18.3981 19.16C18.5529 19.0984 18.6941 19.0069 18.8135 18.8907C18.933 18.7745 19.0284 18.6359 19.0942 18.4828C19.1601 18.3298 19.1952 18.1652 19.1975 17.9986V3.00113C19.1952 2.83451 19.1601 2.66997 19.0942 2.51691C19.0284 2.36385 18.933 2.22527 18.8135 2.10908C18.6941 1.99288 18.5529 1.90136 18.3981 1.83973C18.2433 1.77809 18.0779 1.74756 17.9112 1.74988V1.74988ZM7.07874 16.3974H4.45374V8.52238H7.07874V16.3974ZM5.76624 7.41988C5.40422 7.41988 5.05703 7.27607 4.80104 7.02008C4.54505 6.76409 4.40124 6.4169 4.40124 6.05488C4.40124 5.69286 4.54505 5.34566 4.80104 5.08968C5.05703 4.83369 5.40422 4.68988 5.76624 4.68988C5.95847 4.66808 6.15314 4.68713 6.33751 4.74578C6.52187 4.80443 6.69176 4.90136 6.83607 5.03022C6.98037 5.15908 7.09583 5.31697 7.17488 5.49355C7.25393 5.67013 7.29479 5.86141 7.29479 6.05488C7.29479 6.24834 7.25393 6.43963 7.17488 6.61621C7.09583 6.79278 6.98037 6.95067 6.83607 7.07954C6.69176 7.2084 6.52187 7.30533 6.33751 7.36398C6.15314 7.42263 5.95847 7.44168 5.76624 7.41988V7.41988ZM16.5462 16.3974H13.9212V12.1711C13.9212 11.1124 13.545 10.4211 12.5912 10.4211C12.2961 10.4233 12.0087 10.5159 11.7677 10.6864C11.5268 10.8569 11.3439 11.0972 11.2437 11.3749C11.1753 11.5805 11.1456 11.7971 11.1562 12.0136V16.3886H8.53124C8.53124 16.3886 8.53124 9.23113 8.53124 8.51363H11.1562V9.62488C11.3947 9.2111 11.7415 8.87021 12.1594 8.63893C12.5772 8.40765 13.0502 8.29475 13.5275 8.31238C15.2775 8.31238 16.5462 9.44113 16.5462 11.8649V16.3974Z" fill="#EFE1DA"/>
</svg>
