<svg width="21" height="21" viewBox="0 0 21 21" fill="none" xmlns="http://www.w3.org/2000/svg">
<path d="M19.25 5.73125C19.2402 5.35375 19.211 4.977 19.1625 4.6025C19.0972 4.27448 18.9883 3.95667 18.8388 3.6575C18.6824 3.33297 18.4723 3.03715 18.2175 2.7825C17.9603 2.53068 17.665 2.32102 17.3425 2.16125C17.0429 2.01464 16.7251 1.9087 16.3975 1.84625C16.0266 1.79069 15.6525 1.75854 15.2775 1.75H5.73125C5.35375 1.75983 4.977 1.78904 4.6025 1.8375C4.27448 1.90283 3.95667 2.01172 3.6575 2.16125C3.33297 2.31764 3.03715 2.52768 2.7825 2.7825C2.53068 3.03967 2.32102 3.33497 2.16125 3.6575C2.01464 3.95707 1.9087 4.27488 1.84625 4.6025C1.79069 4.97344 1.75854 5.34752 1.75 5.7225C1.75 5.88875 1.75 6.125 1.75 6.195V14.805C1.75 14.9013 1.75 15.1113 1.75 15.2688C1.75983 15.6463 1.78904 16.023 1.8375 16.3975C1.90283 16.7255 2.01172 17.0433 2.16125 17.3425C2.31764 17.667 2.52768 17.9629 2.7825 18.2175C3.03967 18.4693 3.33497 18.679 3.6575 18.8388C3.95707 18.9854 4.27488 19.0913 4.6025 19.1537C4.97344 19.2093 5.34752 19.2415 5.7225 19.25H15.2688C15.6463 19.2402 16.023 19.211 16.3975 19.1625C16.7255 19.0972 17.0433 18.9883 17.3425 18.8388C17.667 18.6824 17.9629 18.4723 18.2175 18.2175C18.4693 17.9603 18.679 17.665 18.8388 17.3425C18.9854 17.0429 19.0913 16.7251 19.1537 16.3975C19.2093 16.0266 19.2415 15.6525 19.25 15.2775C19.25 15.1112 19.25 14.9013 19.25 14.805V6.195C19.25 6.125 19.25 5.88875 19.25 5.73125ZM10.7012 16.625C9.65043 16.6198 8.61799 16.3489 7.7 15.8375L4.375 16.7125L5.25 13.4575C4.68572 12.5094 4.38374 11.4283 4.375 10.325C4.37848 9.08506 4.7488 7.87388 5.43932 6.84399C6.12983 5.81411 7.10965 5.01159 8.25539 4.5375C9.40112 4.06341 10.6615 3.93896 11.8779 4.17982C13.0942 4.42068 14.212 5.01608 15.0906 5.89103C15.9692 6.76598 16.5693 7.88135 16.8152 9.09666C17.0611 10.312 16.9419 11.5729 16.4726 12.7206C16.0032 13.8683 15.2048 14.8514 14.1778 15.5462C13.1508 16.241 11.9412 16.6164 10.7012 16.625ZM10.7012 5.13625C9.77358 5.14687 8.8653 5.40311 8.06886 5.8789C7.27243 6.35468 6.61629 7.03301 6.16726 7.84483C5.71823 8.65665 5.49233 9.57295 5.51257 10.5005C5.53282 11.428 5.79847 12.3335 6.2825 13.125L6.405 13.3262L5.88 15.2425L7.875 14.7L8.0675 14.8138C8.86338 15.2825 9.76885 15.5331 10.6925 15.54C12.0849 15.54 13.4202 14.9869 14.4048 14.0023C15.3894 13.0177 15.9425 11.6824 15.9425 10.29C15.9425 8.89761 15.3894 7.56226 14.4048 6.57769C13.4202 5.59312 12.0849 5.04 10.6925 5.04L10.7012 5.13625ZM13.7637 12.5913C13.6491 12.7824 13.4957 12.9474 13.3133 13.0755C13.1309 13.2036 12.9237 13.292 12.705 13.335C12.3782 13.3947 12.0418 13.3737 11.725 13.2738C11.4269 13.1806 11.1347 13.0695 10.85 12.9412C9.76827 12.3985 8.84576 11.5845 8.1725 10.5788C7.80665 10.1128 7.58466 9.55023 7.53375 8.96C7.52854 8.71481 7.57492 8.47127 7.66989 8.24516C7.76485 8.01906 7.90628 7.81543 8.085 7.6475C8.13764 7.58781 8.20223 7.53984 8.27457 7.50668C8.34692 7.47352 8.42542 7.45592 8.505 7.455H8.75C8.84625 7.455 8.9775 7.455 9.1 7.72625C9.2225 7.9975 9.54625 8.81125 9.59 8.89C9.6115 8.93198 9.62271 8.97846 9.62271 9.02562C9.62271 9.07279 9.6115 9.11927 9.59 9.16125C9.55132 9.25633 9.49819 9.34488 9.4325 9.42375C9.35375 9.52 9.26625 9.63375 9.19625 9.70375C9.12625 9.77375 9.03875 9.86125 9.12625 10.0187C9.36433 10.4205 9.65902 10.786 10.0013 11.1037C10.3739 11.4331 10.8 11.6964 11.2612 11.8825C11.4187 11.9612 11.515 11.9525 11.6025 11.8825C11.69 11.8125 11.9962 11.4275 12.1012 11.27C12.2062 11.1125 12.3112 11.1387 12.4512 11.1912C12.5912 11.2437 13.37 11.62 13.5275 11.6987C13.685 11.7775 13.7813 11.8125 13.825 11.8825C13.8629 12.1115 13.8419 12.3464 13.7637 12.565V12.5913Z" fill="#EFE1DA"/>
</svg>
